<?xml version="1.0" encoding="utf-8"?>
<!-- Generator: Adobe Illustrator 16.0.4, SVG Export Plug-In . SVG Version: 6.00 Build 0)  -->
<!DOCTYPE svg PUBLIC "-//W3C//DTD SVG 1.1//EN" "http://www.w3.org/Graphics/SVG/1.1/DTD/svg11.dtd" [
	<!ENTITY ns_extend "http://ns.adobe.com/Extensibility/1.0/">
	<!ENTITY ns_ai "http://ns.adobe.com/AdobeIllustrator/10.0/">
	<!ENTITY ns_graphs "http://ns.adobe.com/Graphs/1.0/">
	<!ENTITY ns_vars "http://ns.adobe.com/Variables/1.0/">
	<!ENTITY ns_imrep "http://ns.adobe.com/ImageReplacement/1.0/">
	<!ENTITY ns_sfw "http://ns.adobe.com/SaveForWeb/1.0/">
	<!ENTITY ns_custom "http://ns.adobe.com/GenericCustomNamespace/1.0/">
	<!ENTITY ns_adobe_xpath "http://ns.adobe.com/XPath/1.0/">
]>
<svg version="1.1" id="Ebene_1" xmlns:x="&ns_extend;" xmlns:i="&ns_ai;" xmlns:graph="&ns_graphs;"
	 xmlns="http://www.w3.org/2000/svg" xmlns:xlink="http://www.w3.org/1999/xlink" x="0px" y="0px" width="360px" height="82.205px"
	 viewBox="0 0 360 82.205" enable-background="new 0 0 360 82.205" xml:space="preserve">
<metadata>
	<sfw  xmlns="&ns_sfw;">
		<slices></slices>
		<sliceSourceBounds  height="82.205" width="360" y="759.686" x="0" bottomLeftOrigin="true"></sliceSourceBounds>
	</sfw>
</metadata>
<path fill="#005DA5" d="M49.699,37.265c-0.03,1.375-0.175,2.454-0.443,3.225c-0.618,1.834-2.801,2.848-6.553,2.994
	c-1.541,0.055-4.439,0.102-8.702,0.102c-2.317,0-4.198-0.063-5.593-0.175c-2.835-0.219-4.717-0.841-5.685-1.866
	c-1.185-1.251-1.783-4.349-1.783-9.233c0-4.445,0.205-7.337,0.599-8.672c0.563-1.904,2.022-3.071,4.373-3.531
	c1.152-0.222,4.932-0.337,11.353-0.337c4.121,0,6.83,0.116,8.137,0.337c1.849,0.289,2.979,1.004,3.388,2.112
	c0.268,0.734,0.446,1.673,0.497,2.835h12.341v-1.416c0-4.998-0.967-8.538-2.892-10.631c-1.1-1.209-2.465-2.075-4.132-2.63
	c-2.198-0.72-5.636-1.14-10.343-1.269c-0.401-0.042-3.894-0.05-10.508-0.05c-7.199,0-12.186,0.327-14.964,0.957
	c-5.355,1.22-8.634,4.379-9.816,9.47c-0.525,2.312-0.815,6.056-0.815,11.2c0,7.215,0.496,12.349,1.505,15.404
	c1.436,4.413,4.887,7,10.409,7.741c2.889,0.392,7.201,0.589,12.987,0.589c9.788-0.018,16.22-0.218,19.317-0.666
	c3.574-0.497,6.189-1.912,7.833-4.227c1.312-1.852,1.986-5.267,1.986-10.246v-2.018H49.699"/>
<polyline fill-rule="evenodd" clip-rule="evenodd" fill="#005DA5" points="74.921,9.059 121.588,9.059 121.588,19.369 
	87.576,19.369 87.576,27.098 119.669,27.098 119.669,36.073 87.576,36.073 87.576,44.119 122.007,44.119 122.007,54.42 
	74.921,54.42 "/>
<polyline fill-rule="evenodd" clip-rule="evenodd" fill="#005DA5" points="149.678,54.42 149.678,38.709 125.595,9.059 
	141.963,9.059 156.189,27.825 170.274,9.059 186.317,9.059 162.57,38.709 162.57,54.42 "/>
<polyline fill-rule="evenodd" clip-rule="evenodd" fill="#005DA5" points="190.085,54.42 190.085,9.059 202.912,9.059 
	202.912,43.226 231.906,43.226 231.906,54.42 "/>
<polyline fill-rule="evenodd" clip-rule="evenodd" fill="#005DA5" points="300.869,54.42 300.869,9.059 321.246,9.059 
	346.783,43.591 346.783,9.059 358.564,9.059 358.564,54.42 337.996,54.42 312.834,20.258 312.834,54.42 "/>
<path fill-rule="evenodd" clip-rule="evenodd" fill="#005DA5" d="M234.258,54.42L257.95,9.059h17.18L298.16,54.42h-14l-4.191-8.113
	h-27.18l-4.033,8.113 M257.422,36.882h18.097l-9.154-18.085L257.422,36.882z"/>
<path fill-rule="evenodd" clip-rule="evenodd" fill="#005DA5" d="M335.646,11.441c0.695,0,1.199,0.056,1.52,0.211
	c0.594,0.242,0.871,0.702,0.871,1.422c0,0.525-0.184,0.899-0.543,1.139c-0.203,0.126-0.463,0.205-0.818,0.27
	c0.439,0.061,0.766,0.253,0.967,0.545c0.207,0.315,0.303,0.596,0.303,0.898v0.407c0,0.13,0,0.269,0.01,0.436
	c0.012,0.143,0.039,0.246,0.057,0.285l0.033,0.083h-0.924c-0.006-0.037-0.006-0.053-0.014-0.067c-0.008-0.02-0.01-0.035-0.01-0.055
	l-0.023-0.196V16.36c0-0.649-0.17-1.086-0.527-1.287c-0.205-0.121-0.572-0.195-1.096-0.195h-0.783v2.259h-0.979v-5.696H335.646
	 M336.705,12.329c-0.246-0.138-0.641-0.22-1.197-0.22h-0.84v2.067h0.9c0.406,0,0.719-0.03,0.926-0.128
	c0.391-0.147,0.58-0.433,0.58-0.877C337.074,12.763,336.953,12.466,336.705,12.329 M339.346,17.96
	c-0.996,1.032-2.195,1.535-3.602,1.535c-1.418,0-2.615-0.503-3.609-1.535c-0.98-1.005-1.467-2.225-1.467-3.67
	c0-1.413,0.492-2.628,1.484-3.656c0.992-1.002,2.188-1.501,3.592-1.501c1.406,0,2.605,0.499,3.602,1.501
	c1.002,1.023,1.492,2.243,1.492,3.656C340.838,15.731,340.348,16.954,339.346,17.96 M332.643,11.132
	c-0.848,0.89-1.273,1.928-1.273,3.157c0,1.262,0.426,2.302,1.268,3.176c0.855,0.889,1.887,1.313,3.107,1.313
	c1.213,0,2.25-0.424,3.102-1.313c0.846-0.874,1.27-1.914,1.27-3.176c0-1.229-0.424-2.268-1.27-3.157
	c-0.852-0.871-1.893-1.295-3.102-1.295C334.531,9.837,333.498,10.262,332.643,11.132"/>
<path fill="#005DA5" d="M22.74,64.212h-2.307c-0.026-0.261-0.049-0.462-0.085-0.587c-0.094-0.279-0.31-0.465-0.619-0.514
	c-0.07-0.007-0.351-0.019-0.866-0.037h-0.83c-0.242-0.01-0.549,0-0.912,0.018c-0.394,0.012-0.646,0.015-0.76,0.015
	c-0.526,0-0.894,0.146-1.093,0.444c-0.157,0.266-0.243,1.086-0.243,2.504c0,0.932,0.05,1.55,0.168,1.837
	c0.166,0.383,0.438,0.608,0.835,0.692c0.231,0.028,1.022,0.044,2.348,0.044c0.638,0,1.027-0.008,1.163-0.024
	c0.455-0.073,0.727-0.264,0.834-0.613c0.057-0.141,0.075-0.335,0.075-0.571c0-0.083-0.004-0.204-0.005-0.341h-2.991v-1.873h5.286
	v1.383c0,1.147-0.056,1.941-0.121,2.424c-0.207,1.239-0.931,1.896-2.165,1.928c-0.3,0.011-1.315,0.011-3.08,0.011
	c-1.012,0-1.766-0.015-2.262-0.064c-1.183-0.118-1.912-0.715-2.22-1.805c-0.151-0.595-0.238-1.637-0.238-3.106
	c0-1.333,0.056-2.235,0.125-2.733c0.175-0.962,0.521-1.616,1.035-1.953c0.418-0.287,1.09-0.456,1.981-0.53
	c0.31-0.024,0.985-0.033,2.06-0.033c1.334,0,2.03,0,2.066,0.004c0.935,0.07,1.609,0.25,1.995,0.589
	c0.353,0.293,0.589,0.729,0.709,1.283C22.688,62.94,22.74,63.491,22.74,64.212 M26.427,70.887v-3.576
	c0-0.24,0.007-0.418,0.028-0.557c0.11-0.702,0.642-1.051,1.55-1.051c0.382,0,0.677,0.021,0.851,0.099
	c0.308,0.104,0.487,0.337,0.567,0.697c0.027,0.158,0.045,0.422,0.045,0.811v3.576h2.005V67.52c0-0.329,0.013-0.591,0.042-0.79
	c0.056-0.272,0.131-0.487,0.291-0.647c0.2-0.256,0.634-0.379,1.25-0.379c0.505,0,0.868,0.086,1.07,0.241
	c0.26,0.214,0.385,0.616,0.385,1.228v3.715h1.989v-3.913c0-0.999-0.161-1.748-0.494-2.251c-0.431-0.709-1.257-1.067-2.452-1.067
	c-0.615,0-1.094,0.095-1.438,0.285c-0.476,0.257-0.768,0.693-0.903,1.363c-0.32-1.092-1.172-1.647-2.542-1.647
	c-1.023,0-1.681,0.294-2.023,0.845c-0.107,0.192-0.201,0.442-0.267,0.753v-1.422h-1.938v7.055 M40.202,70.887v-1.408
	c0.19,0.593,0.412,0.988,0.691,1.21c0.303,0.237,0.983,0.361,2.001,0.361c0.788,0,1.414-0.11,1.896-0.319
	c0.534-0.224,0.885-0.624,1.048-1.174c0.098-0.421,0.154-1.164,0.154-2.244c0-0.852-0.056-1.485-0.145-1.899
	c-0.122-0.546-0.357-0.944-0.705-1.212c-0.454-0.36-1.216-0.545-2.307-0.545c-0.714,0-1.218,0.073-1.538,0.199
	c-0.507,0.193-0.871,0.625-1.098,1.258v-4.307h-1.982v10.081 M42.165,65.606c0.443,0,0.776,0.026,0.976,0.079
	c0.364,0.058,0.601,0.256,0.717,0.543c0.089,0.221,0.119,0.597,0.119,1.164c0,0.476-0.028,0.788-0.108,0.989
	c-0.13,0.356-0.388,0.577-0.772,0.643c-0.194,0.049-0.468,0.06-0.85,0.06c-0.336,0-0.614-0.002-0.835-0.02
	c-0.491-0.047-0.825-0.196-0.977-0.471c-0.124-0.217-0.197-0.603-0.197-1.172c0-0.434,0.039-0.759,0.072-0.945
	c0.043-0.276,0.167-0.48,0.365-0.622C40.908,65.691,41.401,65.606,42.165,65.606 M49.978,70.887v-3.868h5.35v3.868h2.362V60.807
	h-2.362v3.711h-5.35v-3.711H47.61v10.081"/>
<path fill="#ED7826" d="M305.504,63.573h-0.834c0-0.391-0.072-0.636-0.232-0.736c-0.156-0.101-0.568-0.14-1.232-0.14
	c-0.611,0-1.002,0.042-1.17,0.146c-0.164,0.105-0.248,0.349-0.248,0.73c0,0.587,0.281,0.883,0.83,0.92l0.672,0.036l0.842,0.034
	c1.021,0.064,1.535,0.593,1.535,1.611c0,0.654-0.168,1.081-0.51,1.317c-0.338,0.241-0.953,0.359-1.854,0.359
	c-0.932,0-1.561-0.114-1.912-0.344c-0.352-0.222-0.523-0.633-0.523-1.238l0.006-0.298h0.855l0.01,0.263
	c0,0.372,0.094,0.62,0.279,0.743c0.188,0.125,0.564,0.182,1.115,0.182c0.682,0,1.131-0.058,1.342-0.189
	c0.219-0.128,0.322-0.4,0.322-0.827c0-0.601-0.266-0.891-0.809-0.891c-1.256,0-2.078-0.109-2.477-0.328
	c-0.395-0.219-0.596-0.65-0.596-1.332c0-0.635,0.158-1.065,0.475-1.268c0.312-0.216,0.936-0.325,1.863-0.325
	c1.506,0,2.25,0.458,2.25,1.356V63.573z M307.682,59.657h-0.828v0.927h0.828V59.657z M307.682,62.09h-0.828v5.678h0.828V62.09z
	 M309.131,67.768h0.824v-3.423c0-1.106,0.582-1.647,1.744-1.647c0.525,0,0.883,0.078,1.066,0.251
	c0.188,0.16,0.277,0.496,0.277,0.982v3.837h0.828V64.07c0-0.809-0.145-1.353-0.428-1.629c-0.285-0.301-0.834-0.439-1.641-0.439
	c-0.994,0-1.625,0.288-1.875,0.87l-0.027-0.015l0.027-0.765h-0.797V67.768z M318.99,66.905c-0.17,0.181-0.57,0.256-1.193,0.256
	c-0.752,0-1.225-0.134-1.422-0.389c-0.207-0.253-0.307-0.857-0.307-1.788c0-0.965,0.086-1.602,0.264-1.878
	c0.18-0.272,0.58-0.408,1.199-0.408c0.646,0,1.076,0.061,1.293,0.225c0.221,0.142,0.324,0.426,0.324,0.875v0.145h0.83
	c0-0.748-0.166-1.253-0.504-1.534C319.141,62.134,318.516,62,317.6,62c-0.938,0-1.57,0.208-1.9,0.604
	c-0.338,0.397-0.504,1.178-0.504,2.298c0,1.203,0.166,1.986,0.492,2.368c0.33,0.4,1,0.582,2.018,0.582
	c1.582,0,2.373-0.607,2.373-1.824l-0.008-0.3h-0.822C319.248,66.353,319.162,66.743,318.99,66.905z M325.156,66.235
	c0,0.384-0.1,0.637-0.297,0.753c-0.203,0.118-0.633,0.172-1.297,0.172c-0.701,0-1.145-0.122-1.338-0.375
	c-0.191-0.246-0.283-0.801-0.283-1.711h4.057v-0.431c0-1.087-0.162-1.799-0.486-2.143c-0.32-0.335-1.002-0.501-2.035-0.501
	c-0.957,0-1.6,0.204-1.922,0.588c-0.326,0.385-0.492,1.14-0.492,2.29c0,1.224,0.164,2.015,0.49,2.395
	c0.322,0.401,1.006,0.581,2.045,0.581c0.893,0,1.516-0.119,1.875-0.357c0.357-0.237,0.529-0.641,0.529-1.235l-0.004-0.214h-0.842
	 M321.949,64.434c0-0.73,0.098-1.205,0.297-1.426c0.199-0.198,0.635-0.31,1.303-0.31s1.098,0.095,1.303,0.271
	c0.197,0.194,0.297,0.587,0.297,1.202l0.008,0.262H321.949z M333.078,59.657l-2.236,2.438l0.576,0.538l2.061-2.305v7.441h0.91
	v-8.112H333.078z M337.643,65.698c-0.014,0.171-0.021,0.285-0.021,0.338c0,0.716,0.213,1.199,0.627,1.444
	c0.418,0.249,1.223,0.371,2.418,0.371c1.211,0,2.01-0.159,2.404-0.498c0.387-0.34,0.582-1.015,0.582-2.065l0.014-0.84l-0.018-2.185
	c0-1.096-0.199-1.821-0.6-2.17c-0.396-0.339-1.209-0.526-2.438-0.526c-1.197,0-1.982,0.178-2.357,0.504
	c-0.371,0.344-0.561,1.06-0.561,2.147c0,0.953,0.178,1.587,0.531,1.923c0.354,0.313,1.043,0.492,2.066,0.492
	c1.301,0,2.109-0.243,2.424-0.728h0.016v1.219c0,0.899-0.111,1.463-0.332,1.648c-0.23,0.209-0.848,0.313-1.863,0.313
	c-0.891,0-1.453-0.075-1.688-0.205c-0.238-0.129-0.355-0.438-0.355-0.951l0.002-0.232H337.643 M340.527,60.34
	c1.002,0,1.621,0.101,1.848,0.319c0.234,0.219,0.352,0.766,0.352,1.685c0,0.674-0.125,1.1-0.379,1.256
	c-0.254,0.18-0.902,0.247-1.941,0.247c-0.803,0-1.312-0.106-1.521-0.295c-0.217-0.211-0.32-0.696-0.32-1.455
	c0-0.795,0.104-1.282,0.322-1.46C339.104,60.434,339.648,60.34,340.527,60.34 M345.062,65.698c-0.01,0.171-0.018,0.285-0.018,0.338
	c0,0.716,0.211,1.199,0.627,1.444c0.412,0.249,1.221,0.371,2.414,0.371c1.213,0,2.016-0.159,2.404-0.498
	c0.389-0.34,0.584-1.015,0.584-2.065l0.016-0.84l-0.02-2.185c0-1.096-0.199-1.821-0.598-2.17c-0.398-0.339-1.211-0.526-2.439-0.526
	c-1.197,0-1.98,0.178-2.355,0.504c-0.371,0.344-0.562,1.06-0.562,2.147c0,0.953,0.182,1.587,0.531,1.923
	c0.355,0.313,1.045,0.492,2.068,0.492c1.299,0,2.107-0.243,2.424-0.728h0.014v1.219c0,0.899-0.111,1.463-0.336,1.648
	c-0.223,0.209-0.844,0.313-1.859,0.313c-0.889,0-1.451-0.075-1.688-0.205c-0.238-0.129-0.355-0.438-0.355-0.951l0.002-0.232H345.062
	 M347.951,60.34c0.998,0,1.615,0.101,1.848,0.319c0.232,0.219,0.35,0.766,0.35,1.685c0,0.674-0.125,1.1-0.377,1.256
	c-0.252,0.18-0.902,0.247-1.941,0.247c-0.805,0-1.314-0.106-1.523-0.295c-0.217-0.211-0.32-0.696-0.32-1.455
	c0-0.795,0.104-1.282,0.322-1.46C346.525,60.434,347.074,60.34,347.951,60.34 M352.807,59.657v4.122h0.816
	c0.121-0.535,0.793-0.793,2.023-0.793c0.881,0,1.441,0.114,1.684,0.342s0.365,0.741,0.365,1.563c0,1.007-0.107,1.624-0.328,1.853
	c-0.209,0.228-0.809,0.343-1.777,0.343c-0.932,0-1.514-0.094-1.736-0.261c-0.227-0.187-0.338-0.647-0.338-1.382h-0.859v0.32
	c0,0.836,0.201,1.38,0.605,1.678c0.402,0.276,1.203,0.412,2.396,0.412c1.201,0,1.986-0.177,2.355-0.567
	c0.365-0.384,0.553-1.182,0.553-2.437c0-1.017-0.195-1.718-0.586-2.086c-0.385-0.368-1.109-0.542-2.172-0.542
	c-1.102,0-1.811,0.229-2.123,0.661h-0.02l0.041-2.457h4.527v-0.766H352.807z"/>
<polyline fill="#005DA5" points="65.928,6.02 65.928,77.093 4.497,77.093 4.497,4.53 65.928,4.53 65.928,9.059 70.423,9.059 
	70.423,0 0,0 0,81.622 70.423,81.622 70.423,6.02 "/>
<path fill="#ED7826" d="M75.436,71.776h3.346c1.205,0,1.564,0.283,1.564,2.377c0,1.938-0.421,2.379-1.734,2.379h-3.176V71.776z
	 M74.34,82.079h1.096v-4.442h3.047c1.77,0,2.958-0.442,2.958-3.483c0-2.08-0.407-3.48-2.347-3.48H74.34V82.079z M84.167,71.776
	h3.206c1.689,0,1.972,0.172,1.972,2.314c0,1.577-0.485,2.3-1.629,2.3h-3.549V71.776z M83.071,82.079h1.096v-4.583h2.847
	c1.72,0,2.143,0.471,2.143,1.986v2.597h1.094V78.96c0-1.073-0.359-1.75-1.25-2v-0.031c1.033-0.271,1.438-1.056,1.438-3.026
	c0-2.535-0.751-3.228-2.737-3.228h-4.63V82.079z M99.405,78.232c0,2.523-0.329,2.868-2.894,2.868s-2.893-0.345-2.893-2.868v-3.717
	c0-2.519,0.328-2.865,2.893-2.865s2.894,0.347,2.894,2.865V78.232z M92.524,78.297c0,3.34,1.016,3.908,3.987,3.908
	c2.972,0,3.989-0.567,3.989-3.908v-3.842c0-3.34-1.017-3.906-3.989-3.906c-2.971,0-3.987,0.566-3.987,3.906V78.297z M102.585,82.078
	h1.096v-5.199h4.583v-1.101h-4.583v-4.002h4.77v-1.103h-5.866V82.078z M110.161,82.078h6.036v-1.102h-4.94v-4.253h4.723V75.62
	h-4.723v-3.844h4.973v-1.103h-6.069V82.078z M118.048,79.385c0,2.298,0.923,2.817,3.518,2.817c2.549,0,3.489-0.52,3.489-3.213
	c0-2.773-0.611-3.086-3.411-3.275c-2.096-0.141-2.376-0.425-2.376-2.048c0-1.684,0.171-2.016,2.313-2.016
	c1.877,0,2.394,0.363,2.394,1.857v0.254h1.001c-0.062-2.647-0.641-3.215-3.395-3.215c-2.563,0-3.408,0.346-3.408,3.119
	c0,2.174,0.454,2.851,2.377,3.01l1.157,0.093c2.252,0.188,2.252,0.615,2.252,2.064c0,2.158-0.282,2.268-2.407,2.268
	c-2.129,0-2.502-0.236-2.502-1.936v-0.663h-1.001V79.385z M126.765,79.385c0,2.298,0.923,2.817,3.518,2.817
	c2.549,0,3.489-0.52,3.489-3.213c0-2.773-0.61-3.086-3.411-3.275c-2.096-0.141-2.375-0.425-2.375-2.048
	c0-1.684,0.17-2.016,2.313-2.016c1.876,0,2.393,0.363,2.393,1.857v0.254h1c-0.062-2.647-0.64-3.215-3.394-3.215
	c-2.564,0-3.409,0.346-3.409,3.119c0,2.174,0.454,2.851,2.377,3.01l1.157,0.093c2.251,0.188,2.251,0.615,2.251,2.064
	c0,2.158-0.281,2.268-2.407,2.268c-2.129,0-2.502-0.236-2.502-1.936v-0.663h-1.001V79.385z M135.981,82.078h1.094V70.674h-1.094
	V82.078z M146.273,78.232c0,2.523-0.329,2.868-2.894,2.868s-2.893-0.345-2.893-2.868v-3.717c0-2.519,0.328-2.865,2.893-2.865
	s2.894,0.347,2.894,2.865V78.232z M139.392,78.297c0,3.34,1.017,3.908,3.988,3.908c2.972,0,3.988-0.567,3.988-3.908v-3.842
	c0-3.34-1.016-3.906-3.988-3.906c-2.971,0-3.988,0.566-3.988,3.906V78.297z M149.453,82.078h1.096V71.871h0.031l5.082,10.207h1.736
	V70.674h-1.096V80.88h-0.031l-5.082-10.206h-1.737V82.078z M165.271,78.563h-4.191l2.018-6.787h0.157L165.271,78.563z
	 M166.352,82.077h1.141l-3.55-11.403h-1.532l-3.551,11.403H160l0.737-2.411h4.879L166.352,82.077z M168.953,82.078h5.866V80.88
	h-4.77V70.674h-1.096V82.078z M184.772,77.573h2.939v1.135c0,2.377-0.5,2.392-2.675,2.392c-2.563,0-2.894-0.344-2.894-2.866v-3.717
	c0-2.519,0.33-2.866,2.894-2.866c2.301,0,2.675,0.237,2.675,1.984v0.41h1.095v-1.15c0-2.156-1.547-2.347-3.77-2.347
	c-2.97,0-3.988,0.568-3.988,3.907v3.843c0,3.339,1.019,3.905,3.988,3.905c2.44,0,3.77-0.125,3.77-3.183V76.47h-4.034V77.573z
	 M196.443,78.563h-4.192l2.018-6.787h0.159L196.443,78.563z M197.524,82.077h1.142l-3.553-11.403h-1.53l-3.552,11.403h1.145
	l0.732-2.411h4.881L197.524,82.077z M199.856,79.385c0,2.298,0.925,2.817,3.521,2.817c2.549,0,3.486-0.52,3.486-3.213
	c0-2.773-0.608-3.086-3.408-3.275c-2.097-0.141-2.378-0.425-2.378-2.048c0-1.684,0.173-2.016,2.314-2.016
	c1.876,0,2.396,0.363,2.396,1.857v0.254h0.999c-0.062-2.647-0.641-3.215-3.395-3.215c-2.565,0-3.407,0.346-3.407,3.119
	c0,2.174,0.453,2.851,2.376,3.01l1.157,0.093c2.253,0.188,2.253,0.615,2.253,2.064c0,2.158-0.282,2.268-2.409,2.268
	c-2.126,0-2.503-0.236-2.503-1.936v-0.663h-1.002V79.385z M211.094,82.078h1.093V71.776h3.097v-1.103h-7.287v1.103h3.098V82.078z
	 M217.775,71.776h3.207c1.688,0,1.972,0.172,1.972,2.314c0,1.577-0.487,2.3-1.628,2.3h-3.551V71.776z M216.679,82.079h1.096v-4.583
	h2.849c1.718,0,2.141,0.471,2.141,1.986v2.597h1.096V78.96c0-1.073-0.359-1.75-1.251-2v-0.031c1.031-0.271,1.438-1.056,1.438-3.026
	c0-2.535-0.752-3.228-2.737-3.228h-4.631V82.079z M233.013,78.232c0,2.523-0.328,2.868-2.893,2.868
	c-2.566,0-2.893-0.345-2.893-2.868v-3.717c0-2.519,0.326-2.865,2.893-2.865c2.564,0,2.893,0.347,2.893,2.865V78.232z
	 M226.132,78.297c0,3.34,1.016,3.908,3.988,3.908c2.974,0,3.988-0.567,3.988-3.908v-3.842c0-3.34-1.015-3.906-3.988-3.906
	c-2.973,0-3.988,0.566-3.988,3.906V78.297z M236.194,82.078h1.096V71.871h0.03l5.083,10.207h1.735V70.674h-1.096V80.88h-0.03
	l-5.084-10.206h-1.734V82.078z M253.106,78.232c0,2.523-0.329,2.868-2.894,2.868s-2.894-0.345-2.894-2.868v-3.717
	c0-2.519,0.329-2.865,2.894-2.865s2.894,0.347,2.894,2.865V78.232z M246.225,78.297c0,3.34,1.017,3.908,3.987,3.908
	c2.974,0,3.99-0.567,3.99-3.908v-3.842c0-3.34-1.017-3.906-3.99-3.906c-2.971,0-3.987,0.566-3.987,3.906V78.297z M256.287,82.078
	h1.095V71.871h0.03l3.551,10.207h1.189l3.55-10.207h0.029v10.207h1.097V70.674h-1.829l-3.426,10.065h-0.03l-3.426-10.065h-1.83
	V82.078z M271.636,82.077h1.096v-4.742l3.534-6.661h-1.141l-2.941,5.542l-2.939-5.542h-1.141l3.532,6.661V82.077z M282.215,82.078
	h6.037v-1.102h-4.94v-4.253h4.722V75.62h-4.722v-3.844h4.97v-1.103h-6.066V82.078z M291.306,74.517c0-2.693,0.19-2.865,2.894-2.865
	c2.707,0,2.894,0.172,2.894,2.865v3.717c0,0.474,0,0.868-0.047,1.167l-2.409-2.047l-0.593,0.708l2.782,2.38
	c-0.296,0.597-1.016,0.661-2.628,0.661c-2.703,0-2.894-0.174-2.894-2.868V74.517z M290.211,78.298c0,3.34,0.86,3.906,3.988,3.906
	c1.876,0,2.943-0.204,3.474-1.055l0.562,0.49l0.594-0.727l-0.812-0.692c0.125-0.518,0.17-1.148,0.17-1.921v-3.842
	c0-3.34-0.861-3.907-3.988-3.907c-3.128,0-3.988,0.567-3.988,3.907V78.298z M300.273,79.165c0,2.442,1.035,3.039,3.676,3.039
	c2.693,0,3.707-0.597,3.707-3.039v-8.491h-1.094v8.823c0,1.228-0.578,1.603-2.613,1.603c-2.002,0-2.58-0.375-2.58-1.603v-8.823
	h-1.096V79.165z M310.135,82.078h1.094V70.674h-1.094V82.078z M314.797,71.776h3.346c1.205,0,1.564,0.283,1.564,2.377
	c0,1.938-0.422,2.379-1.734,2.379h-3.176V71.776z M313.701,82.079h1.096v-4.442h3.049c1.766,0,2.955-0.442,2.955-3.483
	c0-2.08-0.406-3.48-2.344-3.48h-4.756V82.079z M322.434,82.078h1.096V71.871h0.029l3.551,10.207h1.189l3.549-10.207h0.033v10.207
	h1.094V70.674h-1.83l-3.426,10.065h-0.029l-3.428-10.065h-1.828V82.078z M335.217,82.078h6.039v-1.102h-4.943v-4.253h4.725V75.62
	h-4.725v-3.844h4.973v-1.103h-6.068V82.078z M343.369,82.078h1.098V71.871h0.029l5.084,10.207h1.738V70.674h-1.098V80.88h-0.031
	l-5.082-10.206h-1.738V82.078z M355.811,82.078h1.094V71.776H360v-1.103h-7.287v1.103h3.098V82.078z"/>
</svg>
