<?xml version="1.0" encoding="UTF-8" standalone="no"?>
<!-- Created with Inkscape (http://www.inkscape.org/) -->

<svg
   width="157.48254mm"
   height="163.55368mm"
   viewBox="0 0 157.48254 163.55368"
   version="1.1"
   id="svg1"
   xml:space="preserve"
   inkscape:version="1.3.2 (091e20e, 2023-11-25, custom)"
   sodipodi:docname="icon_download_CSV.svg"
   xmlns:inkscape="http://www.inkscape.org/namespaces/inkscape"
   xmlns:sodipodi="http://sodipodi.sourceforge.net/DTD/sodipodi-0.dtd"
   xmlns="http://www.w3.org/2000/svg"
   xmlns:svg="http://www.w3.org/2000/svg"><sodipodi:namedview
     id="namedview1"
     pagecolor="#ffffff"
     bordercolor="#000000"
     borderopacity="0.25"
     inkscape:showpageshadow="2"
     inkscape:pageopacity="0.0"
     inkscape:pagecheckerboard="0"
     inkscape:deskcolor="#d1d1d1"
     inkscape:document-units="mm"
     inkscape:zoom="0.85170635"
     inkscape:cx="396.85039"
     inkscape:cy="561.2263"
     inkscape:window-width="2558"
     inkscape:window-height="1368"
     inkscape:window-x="1273"
     inkscape:window-y="0"
     inkscape:window-maximized="0"
     inkscape:current-layer="layer1-8" /><defs
     id="defs1" /><g
     inkscape:label="Layer 1"
     inkscape:groupmode="layer"
     id="layer1"
     transform="translate(-22.530917,-51.803042)"><g
       inkscape:label="Layer 1"
       id="layer1-8"
       transform="translate(-21.739211,-0.13461735)"><path
         style="fill:#000000"
         id="path6"
         d="" /><path
         style="fill:#000000"
         id="path5"
         d="" /><path
         style="fill:#000000"
         id="path4"
         d="" /><path
         style="fill:#000000"
         id="path3"
         d="" /><g
         id="g1"
         transform="translate(18.017751,-14.911243)"><path
           style="fill:#333333;fill-opacity:1"
           d="m 56.156006,193.34343 c -2.54875,-1.17632 -3.04271,-2.46826 -3.04271,-7.95809 v -6.88766 h 2.11667 2.11666 v 6.46339 c 0,3.11773 0.0762,3.89377 0.41578,4.23333 0.37477,0.37477 4.92629,0.41577 46.150884,0.41577 41.2246,0 45.77612,-0.041 46.15089,-0.41577 0.37465,-0.37465 0.41578,-4.77101 0.41578,-44.4428 v -44.02702 l -13.05039,-0.0734 -13.05038,-0.0734 -0.97683,-0.661459 c -0.53725,-0.363802 -1.30231,-1.127408 -1.70013,-1.696903 l -0.72331,-1.035445 -0.0733,-13.053617 -0.0734,-13.053617 H 89.505196 c -28.12633,0 -31.3695,0.04248 -31.74279,0.415774 -0.37257,0.372564 -0.41578,3.232269 -0.41578,27.516665 v 27.100892 h -2.11666 -2.11667 V 98.585008 c 0,-24.245512 0.0488,-27.641942 0.4095,-28.505243 0.54628,-1.307428 1.35237,-2.145038 2.63321,-2.736184 1.01084,-0.466535 2.54321,-0.488713 34.15026,-0.494264 29.943394,-0.0053 33.215984,0.03538 34.395834,0.427158 1.1746,0.390033 2.64629,1.770965 14.84069,13.92544 9.56895,9.53761 13.75684,13.889423 14.2875,14.846718 l 0.75071,1.354248 0.0782,45.905209 c 0.0547,32.10295 -0.007,46.19994 -0.20548,46.88547 -0.38221,1.32051 -1.47519,2.56345 -2.77223,3.15262 -1.02446,0.46534 -3.02685,0.4857 -47.76824,0.4857 -44.842874,0 -46.741014,-0.0194 -47.757284,-0.48845 z M 136.98509,84.701673 125.21225,72.926508 l -0.069,11.288137 c -0.0625,10.222317 -0.0274,11.334121 0.37174,11.775165 0.41505,0.458629 1.10558,0.487029 11.84186,0.487029 h 11.40111 z"
           id="path7" /><path
           style="fill:#000000"
           id="path6-7"
           d="" /><path
           style="fill:#000000"
           id="path5-2"
           d="" /><path
           style="fill:#000000"
           id="path4-4"
           d="" /><path
           style="fill:#000000"
           id="path3-2"
           d="" /><g
           id="g8"
           transform="translate(-7.4461853,-8.639492)"
           style="fill:#dd4d33;fill-opacity:1"><rect
             style="fill:#dd4d33;fill-opacity:1;stroke:none;stroke-width:0.106771"
             id="rect7"
             width="110.02328"
             height="46.493427"
             x="33.698563"
             y="137.4655"
             ry="19.223011" /></g><text
           xml:space="preserve"
           style="font-size:45.3068px;font-family:Arial;-inkscape-font-specification:Arial;text-align:center;text-anchor:middle;fill:#f9f9f9;fill-opacity:1;stroke:none;stroke-width:0.178373"
           x="81.31163"
           y="168.20309"
           id="text8"><tspan
             id="tspan8"
             style="font-size:45.3068px;fill:#f9f9f9;fill-opacity:1;stroke:none;stroke-width:0.178373"
             x="81.31163"
             y="168.20309">PDF</tspan></text><path
           style="fill:#dd4d33;fill-opacity:1"
           d="m 126.32008,199.71116 c 9.56436,0.13099 9.53672,0.11781 14.22437,0 v -51.50183 c 12.71361,-0.0992 13.07933,-0.0617 28,-0.0667 0.23984,14.55499 -0.12446,36.95981 0,51.56853 7.67762,0.0598 7.69649,0.10099 15.19047,0 -13.54466,14.07859 -29.21143,31.22897 -29.68819,30.6785 -15.10955,-17.44545 -16.89134,-19.56723 -27.72665,-30.6785 z"
           id="path1" /><rect
           style="fill:#ffffff;fill-opacity:1;stroke-width:0.260796"
           id="rect1"
           width="3.5564897"
           height="53.21674"
           x="136.98688"
           y="145.77164"
           ry="0" /><rect
           style="fill:#ffffff;fill-opacity:1;stroke-width:0.197357"
           id="rect1-2"
           width="3.5564897"
           height="30.47551"
           x="145.65947"
           y="-170.24939"
           ry="0"
           transform="rotate(90)" /><rect
           style="fill:#333333;fill-opacity:1;stroke-width:2.07071"
           id="rect2"
           width="44"
           height="2.514818"
           x="68"
           y="100" /><rect
           style="fill:#333333;fill-opacity:1;stroke-width:2.07071"
           id="rect5"
           width="44"
           height="2.514818"
           x="68"
           y="90" /><rect
           style="fill:#333333;fill-opacity:1;stroke-width:2.07071"
           id="rect6"
           width="44"
           height="2.514818"
           x="68"
           y="110" /></g></g></g></svg>
